<svg xmlns="http://www.w3.org/2000/svg" width="520" height="660" viewBox="0 0 520 660">
  <rect width="520" height="660" fill="#F5F1EA"/>
  <text x="260" y="30" text-anchor="middle" font-family="Georgia,serif" font-size="18" font-weight="bold" letter-spacing="4" fill="#1E1E1E">CANYON</text>
  <text x="260" y="52" text-anchor="middle" font-family="Arial,sans-serif" font-size="10" fill="#888880" letter-spacing="1.5">2 BED · 2 BATH · 900 SF</text>
  <line x1="40" y1="66" x2="480" y2="66" stroke="#E0DCD3" stroke-width="0.75"/>
  <rect x="66.4" y="130.4" width="193.6" height="180.7" fill="#FFFFFF"/>
  <rect x="66.4" y="311.1" width="129.1" height="103.3" fill="#FFFFFF"/>
  <rect x="195.5" y="311.1" width="64.5" height="103.3" fill="#FFFFFF"/>
  <rect x="260.0" y="130.4" width="193.6" height="180.7" fill="#FFFFFF"/>
  <rect x="260.0" y="311.1" width="129.1" height="103.3" fill="#FFFFFF"/>
  <rect x="389.1" y="311.1" width="64.5" height="103.3" fill="#FFFFFF"/>
  <rect x="66.4" y="414.3" width="387.2" height="77.4" fill="#FFFFFF"/>
  <rect x="66.4" y="491.8" width="387.2" height="25.8" fill="#E8E4DB"/>
  <rect x="66.4" y="130.4" width="387.2" height="387.2" fill="none" stroke="#1E1E1E" stroke-width="5" stroke-linejoin="miter"/>
  <line x1="260.0" y1="130.4" x2="260.0" y2="414.3" stroke="#3A3A3A" stroke-width="2.5"/>
  <line x1="66.4" y1="311.1" x2="453.6" y2="311.1" stroke="#3A3A3A" stroke-width="2.5"/>
  <line x1="195.5" y1="311.1" x2="195.5" y2="414.3" stroke="#3A3A3A" stroke-width="2.5"/>
  <line x1="389.1" y1="311.1" x2="389.1" y2="414.3" stroke="#3A3A3A" stroke-width="2.5"/>
  <line x1="66.4" y1="414.3" x2="453.6" y2="414.3" stroke="#3A3A3A" stroke-width="2.5"/>
  <text x="163.2" y="213.7" text-anchor="middle" dominant-baseline="central" font-family="Arial,sans-serif" font-size="10" font-weight="500" fill="#1E1E1E">BEDROOM 1</text>
  <text x="163.2" y="227.7" text-anchor="middle" dominant-baseline="central" font-family="Arial,sans-serif" font-size="7.5" fill="#888880">210 SF</text>
  <text x="130.9" y="362.7" text-anchor="middle" dominant-baseline="central" font-family="Arial,sans-serif" font-size="10" font-weight="500" fill="#1E1E1E">BATH 1</text>
  <text x="227.7" y="362.7" text-anchor="middle" dominant-baseline="central" font-family="Arial,sans-serif" font-size="9" font-weight="500" fill="#1E1E1E">CLOSET</text>
  <text x="356.8" y="213.7" text-anchor="middle" dominant-baseline="central" font-family="Arial,sans-serif" font-size="10" font-weight="500" fill="#1E1E1E">BEDROOM 2</text>
  <text x="356.8" y="227.7" text-anchor="middle" dominant-baseline="central" font-family="Arial,sans-serif" font-size="7.5" fill="#888880">210 SF</text>
  <text x="324.5" y="362.7" text-anchor="middle" dominant-baseline="central" font-family="Arial,sans-serif" font-size="10" font-weight="500" fill="#1E1E1E">BATH 2</text>
  <text x="421.3" y="362.7" text-anchor="middle" dominant-baseline="central" font-family="Arial,sans-serif" font-size="9" font-weight="500" fill="#1E1E1E">CLOSET</text>
  <text x="260.0" y="446.1" text-anchor="middle" dominant-baseline="central" font-family="Arial,sans-serif" font-size="10" font-weight="500" fill="#1E1E1E">LIVING / DINING / KITCHEN</text>
  <text x="260.0" y="460.1" text-anchor="middle" dominant-baseline="central" font-family="Arial,sans-serif" font-size="7.5" fill="#888880">180 SF</text>
  <text x="260.0" y="504.7" text-anchor="middle" dominant-baseline="central" font-family="Arial,sans-serif" font-size="8" font-weight="500" fill="#1E1E1E">COVERED PORCH</text>
  <line x1="66.4" y1="539.6" x2="453.6" y2="539.6" stroke="#888880" stroke-width="0.75"/>
  <line x1="66.4" y1="534.6" x2="66.4" y2="544.6" stroke="#888880" stroke-width="0.75"/>
  <line x1="453.6" y1="534.6" x2="453.6" y2="544.6" stroke="#888880" stroke-width="0.75"/>
  <text x="260.0" y="551.6" text-anchor="middle" font-family="Arial,sans-serif" font-size="8" fill="#888880">30 FT</text>
  <line x1="44.4" y1="130.4" x2="44.4" y2="517.6" stroke="#888880" stroke-width="0.75"/>
  <line x1="39.4" y1="130.4" x2="49.4" y2="130.4" stroke="#888880" stroke-width="0.75"/>
  <line x1="39.4" y1="517.6" x2="49.4" y2="517.6" stroke="#888880" stroke-width="0.75"/>
  <text x="30.4" y="324.0" text-anchor="middle" dominant-baseline="central" font-family="Arial,sans-serif" font-size="8" fill="#888880" transform="rotate(-90,30.4,324.0)">30 FT</text>
  <line x1="40" y1="632" x2="169.1" y2="632" stroke="#1E1E1E" stroke-width="1.5"/>
  <line x1="40" y1="628" x2="40" y2="636" stroke="#1E1E1E" stroke-width="1.5"/>
  <line x1="169.1" y1="628" x2="169.1" y2="636" stroke="#1E1E1E" stroke-width="1.5"/>
  <text x="40" y="645" font-family="Arial,sans-serif" font-size="7.5" fill="#888880">0</text>
  <text x="169.1" y="645" text-anchor="middle" font-family="Arial,sans-serif" font-size="7.5" fill="#888880">10 FT</text>
  <text x="104.5" y="645" text-anchor="middle" font-family="Arial,sans-serif" font-size="7.5" fill="#888880">|</text>
  <circle cx="476" cy="630" r="16" fill="none" stroke="#888880" stroke-width="0.75"/>
  <polygon points="476,618 472,638 476,634 480,638" fill="#1E1E1E"/>
  <polygon points="476,618 472,638 476,634 480,638" fill="#F5F1EA" clip-path="url(#nclip_CANYON)"/>
  <text x="476" y="658" text-anchor="middle" font-family="Arial,sans-serif" font-size="8" fill="#888880">N</text>
</svg>