<svg xmlns="http://www.w3.org/2000/svg" width="520" height="660" viewBox="0 0 520 660">
  <rect width="520" height="660" fill="#F5F1EA"/>
  <text x="260" y="30" text-anchor="middle" font-family="Georgia,serif" font-size="18" font-weight="bold" letter-spacing="4" fill="#1E1E1E">GROVE</text>
  <text x="260" y="52" text-anchor="middle" font-family="Arial,sans-serif" font-size="10" fill="#888880" letter-spacing="1.5">1 BED · 1 BATH · 550 SF</text>
  <line x1="40" y1="66" x2="480" y2="66" stroke="#E0DCD3" stroke-width="0.75"/>
  <rect x="81.3" y="112.8" width="211.2" height="243.7" fill="#FFFFFF"/>
  <rect x="292.5" y="112.8" width="146.2" height="178.7" fill="#FFFFFF"/>
  <rect x="292.5" y="291.5" width="146.2" height="65.0" fill="#FFFFFF"/>
  <rect x="81.3" y="356.5" width="357.4" height="146.2" fill="#FFFFFF"/>
  <rect x="81.3" y="502.7" width="357.4" height="32.5" fill="#E8E4DB"/>
  <rect x="81.3" y="112.8" width="357.4" height="422.4" fill="none" stroke="#1E1E1E" stroke-width="5" stroke-linejoin="miter"/>
  <line x1="292.5" y1="112.8" x2="292.5" y2="356.5" stroke="#3A3A3A" stroke-width="2.5"/>
  <line x1="292.5" y1="291.5" x2="438.7" y2="291.5" stroke="#3A3A3A" stroke-width="2.5"/>
  <line x1="81.3" y1="356.5" x2="438.7" y2="356.5" stroke="#3A3A3A" stroke-width="2.5"/>
  <text x="186.9" y="227.6" text-anchor="middle" dominant-baseline="central" font-family="Arial,sans-serif" font-size="10" font-weight="500" fill="#1E1E1E">BEDROOM</text>
  <text x="186.9" y="241.6" text-anchor="middle" dominant-baseline="central" font-family="Arial,sans-serif" font-size="7.5" fill="#888880">195 SF</text>
  <text x="365.6" y="202.2" text-anchor="middle" dominant-baseline="central" font-family="Arial,sans-serif" font-size="10" font-weight="500" fill="#1E1E1E">BATH</text>
  <text x="365.6" y="324.0" text-anchor="middle" dominant-baseline="central" font-family="Arial,sans-serif" font-size="10" font-weight="500" fill="#1E1E1E">CLOSET</text>
  <text x="260.0" y="422.6" text-anchor="middle" dominant-baseline="central" font-family="Arial,sans-serif" font-size="10" font-weight="500" fill="#1E1E1E">LIVING / KITCHEN</text>
  <text x="260.0" y="436.6" text-anchor="middle" dominant-baseline="central" font-family="Arial,sans-serif" font-size="7.5" fill="#888880">198 SF</text>
  <text x="260.0" y="519.0" text-anchor="middle" dominant-baseline="central" font-family="Arial,sans-serif" font-size="9" font-weight="500" fill="#1E1E1E">PORCH</text>
  <line x1="81.3" y1="557.2" x2="438.7" y2="557.2" stroke="#888880" stroke-width="0.75"/>
  <line x1="81.3" y1="552.2" x2="81.3" y2="562.2" stroke="#888880" stroke-width="0.75"/>
  <line x1="438.7" y1="552.2" x2="438.7" y2="562.2" stroke="#888880" stroke-width="0.75"/>
  <text x="260.0" y="569.2" text-anchor="middle" font-family="Arial,sans-serif" font-size="8" fill="#888880">22 FT</text>
  <line x1="59.3" y1="112.8" x2="59.3" y2="535.2" stroke="#888880" stroke-width="0.75"/>
  <line x1="54.3" y1="112.8" x2="64.3" y2="112.8" stroke="#888880" stroke-width="0.75"/>
  <line x1="54.3" y1="535.2" x2="64.3" y2="535.2" stroke="#888880" stroke-width="0.75"/>
  <text x="45.3" y="324.0" text-anchor="middle" dominant-baseline="central" font-family="Arial,sans-serif" font-size="8" fill="#888880" transform="rotate(-90,45.3,324.0)">26 FT</text>
  <line x1="40" y1="632" x2="202.5" y2="632" stroke="#1E1E1E" stroke-width="1.5"/>
  <line x1="40" y1="628" x2="40" y2="636" stroke="#1E1E1E" stroke-width="1.5"/>
  <line x1="202.5" y1="628" x2="202.5" y2="636" stroke="#1E1E1E" stroke-width="1.5"/>
  <text x="40" y="645" font-family="Arial,sans-serif" font-size="7.5" fill="#888880">0</text>
  <text x="202.5" y="645" text-anchor="middle" font-family="Arial,sans-serif" font-size="7.5" fill="#888880">10 FT</text>
  <text x="121.2" y="645" text-anchor="middle" font-family="Arial,sans-serif" font-size="7.5" fill="#888880">|</text>
  <circle cx="476" cy="630" r="16" fill="none" stroke="#888880" stroke-width="0.75"/>
  <polygon points="476,618 472,638 476,634 480,638" fill="#1E1E1E"/>
  <polygon points="476,618 472,638 476,634 480,638" fill="#F5F1EA" clip-path="url(#nclip_GROVE)"/>
  <text x="476" y="658" text-anchor="middle" font-family="Arial,sans-serif" font-size="8" fill="#888880">N</text>
</svg>