<svg xmlns="http://www.w3.org/2000/svg" width="520" height="660" viewBox="0 0 520 660">
  <rect width="520" height="660" fill="#F5F1EA"/>
  <text x="260" y="30" text-anchor="middle" font-family="Georgia,serif" font-size="18" font-weight="bold" letter-spacing="4" fill="#1E1E1E">HAVEN</text>
  <text x="260" y="52" text-anchor="middle" font-family="Arial,sans-serif" font-size="10" fill="#888880" letter-spacing="1.5">1 BED + DEN · 1 BATH · 700 SF</text>
  <line x1="40" y1="66" x2="480" y2="66" stroke="#E0DCD3" stroke-width="0.75"/>
  <rect x="66.4" y="123.0" width="193.6" height="223.4" fill="#FFFFFF"/>
  <rect x="260.0" y="123.0" width="193.6" height="193.6" fill="#FFFFFF"/>
  <rect x="260.0" y="316.6" width="193.6" height="119.1" fill="#FFFFFF"/>
  <rect x="66.4" y="346.3" width="193.6" height="59.6" fill="#FFFFFF"/>
  <rect x="66.4" y="405.9" width="387.2" height="89.4" fill="#FFFFFF"/>
  <rect x="66.4" y="495.3" width="387.2" height="29.8" fill="#E8E4DB"/>
  <rect x="66.4" y="123.0" width="387.2" height="402.1" fill="none" stroke="#1E1E1E" stroke-width="5" stroke-linejoin="miter"/>
  <line x1="260.0" y1="123.0" x2="260.0" y2="435.7" stroke="#3A3A3A" stroke-width="2.5"/>
  <line x1="260.0" y1="316.6" x2="453.6" y2="316.6" stroke="#3A3A3A" stroke-width="2.5"/>
  <line x1="66.4" y1="346.3" x2="260.0" y2="346.3" stroke="#3A3A3A" stroke-width="2.5"/>
  <line x1="66.4" y1="405.9" x2="453.6" y2="405.9" stroke="#3A3A3A" stroke-width="2.5"/>
  <text x="163.2" y="227.6" text-anchor="middle" dominant-baseline="central" font-family="Arial,sans-serif" font-size="10" font-weight="500" fill="#1E1E1E">BEDROOM</text>
  <text x="163.2" y="241.6" text-anchor="middle" dominant-baseline="central" font-family="Arial,sans-serif" font-size="7.5" fill="#888880">195 SF</text>
  <text x="356.8" y="212.8" text-anchor="middle" dominant-baseline="central" font-family="Arial,sans-serif" font-size="10" font-weight="500" fill="#1E1E1E">DEN / OFFICE</text>
  <text x="356.8" y="226.8" text-anchor="middle" dominant-baseline="central" font-family="Arial,sans-serif" font-size="7.5" fill="#888880">169 SF</text>
  <text x="356.8" y="376.1" text-anchor="middle" dominant-baseline="central" font-family="Arial,sans-serif" font-size="10" font-weight="500" fill="#1E1E1E">BATH</text>
  <text x="163.2" y="376.1" text-anchor="middle" dominant-baseline="central" font-family="Arial,sans-serif" font-size="10" font-weight="500" fill="#1E1E1E">CLOSET</text>
  <text x="260.0" y="443.6" text-anchor="middle" dominant-baseline="central" font-family="Arial,sans-serif" font-size="10" font-weight="500" fill="#1E1E1E">LIVING / KITCHEN</text>
  <text x="260.0" y="457.6" text-anchor="middle" dominant-baseline="central" font-family="Arial,sans-serif" font-size="7.5" fill="#888880">156 SF</text>
  <text x="260.0" y="510.2" text-anchor="middle" dominant-baseline="central" font-family="Arial,sans-serif" font-size="8" font-weight="500" fill="#1E1E1E">COVERED DECK</text>
  <line x1="66.4" y1="547.0" x2="453.6" y2="547.0" stroke="#888880" stroke-width="0.75"/>
  <line x1="66.4" y1="542.0" x2="66.4" y2="552.0" stroke="#888880" stroke-width="0.75"/>
  <line x1="453.6" y1="542.0" x2="453.6" y2="552.0" stroke="#888880" stroke-width="0.75"/>
  <text x="260.0" y="559.0" text-anchor="middle" font-family="Arial,sans-serif" font-size="8" fill="#888880">26 FT</text>
  <line x1="44.4" y1="123.0" x2="44.4" y2="525.0" stroke="#888880" stroke-width="0.75"/>
  <line x1="39.4" y1="123.0" x2="49.4" y2="123.0" stroke="#888880" stroke-width="0.75"/>
  <line x1="39.4" y1="525.0" x2="49.4" y2="525.0" stroke="#888880" stroke-width="0.75"/>
  <text x="30.4" y="324.0" text-anchor="middle" dominant-baseline="central" font-family="Arial,sans-serif" font-size="8" fill="#888880" transform="rotate(-90,30.4,324.0)">27 FT</text>
  <line x1="40" y1="632" x2="188.9" y2="632" stroke="#1E1E1E" stroke-width="1.5"/>
  <line x1="40" y1="628" x2="40" y2="636" stroke="#1E1E1E" stroke-width="1.5"/>
  <line x1="188.9" y1="628" x2="188.9" y2="636" stroke="#1E1E1E" stroke-width="1.5"/>
  <text x="40" y="645" font-family="Arial,sans-serif" font-size="7.5" fill="#888880">0</text>
  <text x="188.9" y="645" text-anchor="middle" font-family="Arial,sans-serif" font-size="7.5" fill="#888880">10 FT</text>
  <text x="114.5" y="645" text-anchor="middle" font-family="Arial,sans-serif" font-size="7.5" fill="#888880">|</text>
  <circle cx="476" cy="630" r="16" fill="none" stroke="#888880" stroke-width="0.75"/>
  <polygon points="476,618 472,638 476,634 480,638" fill="#1E1E1E"/>
  <polygon points="476,618 472,638 476,634 480,638" fill="#F5F1EA" clip-path="url(#nclip_HAVEN)"/>
  <text x="476" y="658" text-anchor="middle" font-family="Arial,sans-serif" font-size="8" fill="#888880">N</text>
</svg>