<svg xmlns="http://www.w3.org/2000/svg" width="520" height="660" viewBox="0 0 520 660">
  <rect width="520" height="660" fill="#F5F1EA"/>
  <text x="260" y="30" text-anchor="middle" font-family="Georgia,serif" font-size="18" font-weight="bold" letter-spacing="4" fill="#1E1E1E">LOFT</text>
  <text x="260" y="52" text-anchor="middle" font-family="Arial,sans-serif" font-size="10" fill="#888880" letter-spacing="1.5">CARRIAGE · 1 BED · 1 BATH · 1,100 SF · 2 STORIES</text>
  <line x1="40" y1="66" x2="480" y2="66" stroke="#E0DCD3" stroke-width="0.75"/>
  <text x="260" y="90.0" text-anchor="middle" font-family="Arial,sans-serif" font-size="8" fill="#C4622D" letter-spacing="1">LEVEL 1</text>
  <rect x="146.0" y="107.7" width="145.9" height="200.6" fill="#FFFFFF"/>
  <rect x="291.9" y="107.7" width="82.1" height="91.2" fill="#FFFFFF"/>
  <rect x="291.9" y="198.9" width="82.1" height="109.4" fill="#FFFFFF"/>
  <rect x="146.0" y="107.7" width="228.0" height="200.6" fill="none" stroke="#1E1E1E" stroke-width="4.5" stroke-linejoin="miter"/>
  <line x1="291.9" y1="107.7" x2="291.9" y2="308.3" stroke="#3A3A3A" stroke-width="2.5"/>
  <line x1="291.9" y1="198.9" x2="374.0" y2="198.9" stroke="#3A3A3A" stroke-width="2.5"/>
  <text x="219.0" y="208.0" text-anchor="middle" dominant-baseline="central" font-family="Arial,sans-serif" font-size="10" font-weight="500" fill="#1E1E1E">GARAGE / PARKING</text>
  <text x="333.0" y="153.3" text-anchor="middle" dominant-baseline="central" font-family="Arial,sans-serif" font-size="10" font-weight="500" fill="#1E1E1E">ENTRY / HALL</text>
  <text x="333.0" y="253.6" text-anchor="middle" dominant-baseline="central" font-family="Arial,sans-serif" font-size="10" font-weight="500" fill="#1E1E1E">STORAGE</text>
  <text x="260" y="330.0" text-anchor="middle" font-family="Arial,sans-serif" font-size="8" fill="#C4622D" letter-spacing="1">LEVEL 2</text>
  <rect x="146.0" y="347.7" width="127.7" height="127.7" fill="#FFFFFF"/>
  <rect x="273.7" y="347.7" width="100.3" height="91.2" fill="#FFFFFF"/>
  <rect x="273.7" y="438.9" width="100.3" height="36.5" fill="#FFFFFF"/>
  <rect x="146.0" y="475.4" width="228.0" height="54.7" fill="#FFFFFF"/>
  <rect x="146.0" y="530.1" width="228.0" height="18.2" fill="#E8E4DB"/>
  <rect x="146.0" y="347.7" width="228.0" height="200.6" fill="none" stroke="#1E1E1E" stroke-width="4.5" stroke-linejoin="miter"/>
  <line x1="273.7" y1="347.7" x2="273.7" y2="475.4" stroke="#3A3A3A" stroke-width="2.5"/>
  <line x1="273.7" y1="438.9" x2="374.0" y2="438.9" stroke="#3A3A3A" stroke-width="2.5"/>
  <line x1="146.0" y1="475.4" x2="374.0" y2="475.4" stroke="#3A3A3A" stroke-width="2.5"/>
  <text x="209.8" y="411.5" text-anchor="middle" dominant-baseline="central" font-family="Arial,sans-serif" font-size="10" font-weight="500" fill="#1E1E1E">BEDROOM</text>
  <text x="323.8" y="393.3" text-anchor="middle" dominant-baseline="central" font-family="Arial,sans-serif" font-size="10" font-weight="500" fill="#1E1E1E">BATH</text>
  <text x="323.8" y="457.1" text-anchor="middle" dominant-baseline="central" font-family="Arial,sans-serif" font-size="9" font-weight="500" fill="#1E1E1E">CLOSET</text>
  <text x="260.0" y="502.7" text-anchor="middle" dominant-baseline="central" font-family="Arial,sans-serif" font-size="10" font-weight="500" fill="#1E1E1E">LIVING / KITCHEN</text>
  <text x="260.0" y="539.2" text-anchor="middle" dominant-baseline="central" font-family="Arial,sans-serif" font-size="7.5" font-weight="500" fill="#1E1E1E">DECK</text>
  <line x1="60" y1="325.0" x2="460" y2="325.0" stroke="#E0DCD3" stroke-width="0.75" stroke-dasharray="4,4"/>
  <line x1="40" y1="632" x2="131.2" y2="632" stroke="#1E1E1E" stroke-width="1.5"/>
  <line x1="40" y1="628" x2="40" y2="636" stroke="#1E1E1E" stroke-width="1.5"/>
  <line x1="131.2" y1="628" x2="131.2" y2="636" stroke="#1E1E1E" stroke-width="1.5"/>
  <text x="40" y="645" font-family="Arial,sans-serif" font-size="7.5" fill="#888880">0</text>
  <text x="85.6" y="645" text-anchor="middle" font-family="Arial,sans-serif" font-size="7.5" fill="#888880">|</text>
  <text x="131.2" y="645" text-anchor="middle" font-family="Arial,sans-serif" font-size="7.5" fill="#888880">10 FT</text>
  <circle cx="476" cy="630" r="16" fill="none" stroke="#888880" stroke-width="0.75"/>
  <polygon points="476,618 472,638 476,634 480,638" fill="#1E1E1E"/>
  <text x="476" y="658" text-anchor="middle" font-family="Arial,sans-serif" font-size="8" fill="#888880">N</text>
</svg>