<svg xmlns="http://www.w3.org/2000/svg" width="520" height="660" viewBox="0 0 520 660">
  <rect width="520" height="660" fill="#F5F1EA"/>
  <text x="260" y="30" text-anchor="middle" font-family="Georgia,serif" font-size="18" font-weight="bold" letter-spacing="4" fill="#1E1E1E">MESA</text>
  <text x="260" y="52" text-anchor="middle" font-family="Arial,sans-serif" font-size="10" fill="#888880" letter-spacing="1.5">2 BED · 1 BATH · 700 SF</text>
  <line x1="40" y1="66" x2="480" y2="66" stroke="#E0DCD3" stroke-width="0.75"/>
  <rect x="66.4" y="151.1" width="179.8" height="193.6" fill="#FFFFFF"/>
  <rect x="246.2" y="151.1" width="124.5" height="138.3" fill="#FFFFFF"/>
  <rect x="246.2" y="289.4" width="124.5" height="55.3" fill="#FFFFFF"/>
  <rect x="370.6" y="151.1" width="83.0" height="193.6" fill="#FFFFFF"/>
  <rect x="66.4" y="344.7" width="387.2" height="124.5" fill="#FFFFFF"/>
  <rect x="66.4" y="469.2" width="387.2" height="27.7" fill="#E8E4DB"/>
  <rect x="66.4" y="151.1" width="387.2" height="345.7" fill="none" stroke="#1E1E1E" stroke-width="5" stroke-linejoin="miter"/>
  <line x1="246.2" y1="151.1" x2="246.2" y2="344.7" stroke="#3A3A3A" stroke-width="2.5"/>
  <line x1="370.6" y1="151.1" x2="370.6" y2="344.7" stroke="#3A3A3A" stroke-width="2.5"/>
  <line x1="246.2" y1="289.4" x2="370.6" y2="289.4" stroke="#3A3A3A" stroke-width="2.5"/>
  <line x1="66.4" y1="344.7" x2="453.6" y2="344.7" stroke="#3A3A3A" stroke-width="2.5"/>
  <text x="156.3" y="240.9" text-anchor="middle" dominant-baseline="central" font-family="Arial,sans-serif" font-size="10" font-weight="500" fill="#1E1E1E">BEDROOM 1</text>
  <text x="156.3" y="254.9" text-anchor="middle" dominant-baseline="central" font-family="Arial,sans-serif" font-size="7.5" fill="#888880">182 SF</text>
  <text x="308.4" y="220.3" text-anchor="middle" dominant-baseline="central" font-family="Arial,sans-serif" font-size="10" font-weight="500" fill="#1E1E1E">BATH</text>
  <text x="308.4" y="317.1" text-anchor="middle" dominant-baseline="central" font-family="Arial,sans-serif" font-size="10" font-weight="500" fill="#1E1E1E">CLOSET</text>
  <text x="412.1" y="240.9" text-anchor="middle" dominant-baseline="central" font-family="Arial,sans-serif" font-size="9" font-weight="500" fill="#1E1E1E">BEDROOM 2</text>
  <text x="412.1" y="254.9" text-anchor="middle" dominant-baseline="central" font-family="Arial,sans-serif" font-size="7.5" fill="#888880">84 SF</text>
  <text x="260.0" y="400.0" text-anchor="middle" dominant-baseline="central" font-family="Arial,sans-serif" font-size="10" font-weight="500" fill="#1E1E1E">LIVING / DINING / KITCHEN</text>
  <text x="260.0" y="414.0" text-anchor="middle" dominant-baseline="central" font-family="Arial,sans-serif" font-size="7.5" fill="#888880">252 SF</text>
  <text x="260.0" y="483.0" text-anchor="middle" dominant-baseline="central" font-family="Arial,sans-serif" font-size="8" font-weight="500" fill="#1E1E1E">PORCH</text>
  <line x1="66.4" y1="518.9" x2="453.6" y2="518.9" stroke="#888880" stroke-width="0.75"/>
  <line x1="66.4" y1="513.9" x2="66.4" y2="523.9" stroke="#888880" stroke-width="0.75"/>
  <line x1="453.6" y1="513.9" x2="453.6" y2="523.9" stroke="#888880" stroke-width="0.75"/>
  <text x="260.0" y="530.9" text-anchor="middle" font-family="Arial,sans-serif" font-size="8" fill="#888880">28 FT</text>
  <line x1="44.4" y1="151.1" x2="44.4" y2="496.9" stroke="#888880" stroke-width="0.75"/>
  <line x1="39.4" y1="151.1" x2="49.4" y2="151.1" stroke="#888880" stroke-width="0.75"/>
  <line x1="39.4" y1="496.9" x2="49.4" y2="496.9" stroke="#888880" stroke-width="0.75"/>
  <text x="30.4" y="324.0" text-anchor="middle" dominant-baseline="central" font-family="Arial,sans-serif" font-size="8" fill="#888880" transform="rotate(-90,30.4,324.0)">25 FT</text>
  <line x1="40" y1="632" x2="178.3" y2="632" stroke="#1E1E1E" stroke-width="1.5"/>
  <line x1="40" y1="628" x2="40" y2="636" stroke="#1E1E1E" stroke-width="1.5"/>
  <line x1="178.3" y1="628" x2="178.3" y2="636" stroke="#1E1E1E" stroke-width="1.5"/>
  <text x="40" y="645" font-family="Arial,sans-serif" font-size="7.5" fill="#888880">0</text>
  <text x="178.3" y="645" text-anchor="middle" font-family="Arial,sans-serif" font-size="7.5" fill="#888880">10 FT</text>
  <text x="109.1" y="645" text-anchor="middle" font-family="Arial,sans-serif" font-size="7.5" fill="#888880">|</text>
  <circle cx="476" cy="630" r="16" fill="none" stroke="#888880" stroke-width="0.75"/>
  <polygon points="476,618 472,638 476,634 480,638" fill="#1E1E1E"/>
  <polygon points="476,618 472,638 476,634 480,638" fill="#F5F1EA" clip-path="url(#nclip_MESA)"/>
  <text x="476" y="658" text-anchor="middle" font-family="Arial,sans-serif" font-size="8" fill="#888880">N</text>
</svg>