<svg xmlns="http://www.w3.org/2000/svg" width="520" height="660" viewBox="0 0 520 660">
  <rect width="520" height="660" fill="#F5F1EA"/>
  <text x="260" y="30" text-anchor="middle" font-family="Georgia,serif" font-size="18" font-weight="bold" letter-spacing="4" fill="#1E1E1E">PALM</text>
  <text x="260" y="52" text-anchor="middle" font-family="Arial,sans-serif" font-size="10" fill="#888880" letter-spacing="1.5">STUDIO · 1 BATH · 400 SF</text>
  <line x1="40" y1="66" x2="480" y2="66" stroke="#E0DCD3" stroke-width="0.75"/>
  <rect x="68.0" y="112.8" width="172.8" height="192.0" fill="#FFFFFF"/>
  <rect x="240.8" y="112.8" width="96.0" height="134.4" fill="#FFFFFF"/>
  <rect x="336.8" y="112.8" width="115.2" height="192.0" fill="#FFFFFF"/>
  <rect x="240.8" y="247.2" width="211.2" height="57.6" fill="#FFFFFF"/>
  <rect x="68.0" y="304.8" width="384.0" height="192.0" fill="#FFFFFF"/>
  <rect x="68.0" y="496.8" width="384.0" height="38.4" fill="#E8E4DB"/>
  <rect x="68.0" y="112.8" width="384.0" height="422.4" fill="none" stroke="#1E1E1E" stroke-width="5" stroke-linejoin="miter"/>
  <line x1="240.8" y1="112.8" x2="240.8" y2="304.8" stroke="#3A3A3A" stroke-width="2.5"/>
  <line x1="336.8" y1="112.8" x2="336.8" y2="304.8" stroke="#3A3A3A" stroke-width="2.5"/>
  <line x1="240.8" y1="247.2" x2="452.0" y2="247.2" stroke="#3A3A3A" stroke-width="2.5"/>
  <line x1="68.0" y1="304.8" x2="452.0" y2="304.8" stroke="#3A3A3A" stroke-width="2.5"/>
  <line x1="240.8" y1="304.8" x2="240.8" y2="304.8" stroke="#3A3A3A" stroke-width="2.5"/>
  <text x="154.4" y="208.8" text-anchor="middle" dominant-baseline="central" font-family="Arial,sans-serif" font-size="10" font-weight="500" fill="#1E1E1E">BATH</text>
  <text x="288.8" y="180.0" text-anchor="middle" dominant-baseline="central" font-family="Arial,sans-serif" font-size="10" font-weight="500" fill="#1E1E1E">CLOSET</text>
  <text x="394.4" y="208.8" text-anchor="middle" dominant-baseline="central" font-family="Arial,sans-serif" font-size="10" font-weight="500" fill="#1E1E1E">KITCHEN</text>
  <text x="346.4" y="276.0" text-anchor="middle" dominant-baseline="central" font-family="Arial,sans-serif" font-size="10" font-weight="500" fill="#1E1E1E">NOOK</text>
  <text x="260.0" y="393.8" text-anchor="middle" dominant-baseline="central" font-family="Arial,sans-serif" font-size="10" font-weight="500" fill="#1E1E1E">LIVING / SLEEPING</text>
  <text x="260.0" y="407.8" text-anchor="middle" dominant-baseline="central" font-family="Arial,sans-serif" font-size="7.5" fill="#888880">200 SF</text>
  <text x="260.0" y="516.0" text-anchor="middle" dominant-baseline="central" font-family="Arial,sans-serif" font-size="9" font-weight="500" fill="#1E1E1E">COVERED PORCH</text>
  <line x1="68.0" y1="557.2" x2="452.0" y2="557.2" stroke="#888880" stroke-width="0.75"/>
  <line x1="68.0" y1="552.2" x2="68.0" y2="562.2" stroke="#888880" stroke-width="0.75"/>
  <line x1="452.0" y1="552.2" x2="452.0" y2="562.2" stroke="#888880" stroke-width="0.75"/>
  <text x="260.0" y="569.2" text-anchor="middle" font-family="Arial,sans-serif" font-size="8" fill="#888880">20 FT</text>
  <line x1="46.0" y1="112.8" x2="46.0" y2="535.2" stroke="#888880" stroke-width="0.75"/>
  <line x1="41.0" y1="112.8" x2="51.0" y2="112.8" stroke="#888880" stroke-width="0.75"/>
  <line x1="41.0" y1="535.2" x2="51.0" y2="535.2" stroke="#888880" stroke-width="0.75"/>
  <text x="32.0" y="324.0" text-anchor="middle" dominant-baseline="central" font-family="Arial,sans-serif" font-size="8" fill="#888880" transform="rotate(-90,32.0,324.0)">22 FT</text>
  <line x1="40" y1="632" x2="232.0" y2="632" stroke="#1E1E1E" stroke-width="1.5"/>
  <line x1="40" y1="628" x2="40" y2="636" stroke="#1E1E1E" stroke-width="1.5"/>
  <line x1="232.0" y1="628" x2="232.0" y2="636" stroke="#1E1E1E" stroke-width="1.5"/>
  <text x="40" y="645" font-family="Arial,sans-serif" font-size="7.5" fill="#888880">0</text>
  <text x="232.0" y="645" text-anchor="middle" font-family="Arial,sans-serif" font-size="7.5" fill="#888880">10 FT</text>
  <text x="136.0" y="645" text-anchor="middle" font-family="Arial,sans-serif" font-size="7.5" fill="#888880">|</text>
  <circle cx="476" cy="630" r="16" fill="none" stroke="#888880" stroke-width="0.75"/>
  <polygon points="476,618 472,638 476,634 480,638" fill="#1E1E1E"/>
  <polygon points="476,618 472,638 476,634 480,638" fill="#F5F1EA" clip-path="url(#nclip_PALM)"/>
  <text x="476" y="658" text-anchor="middle" font-family="Arial,sans-serif" font-size="8" fill="#888880">N</text>
</svg>