<svg xmlns="http://www.w3.org/2000/svg" width="520" height="660" viewBox="0 0 520 660">
  <rect width="520" height="660" fill="#F5F1EA"/>
  <text x="260" y="30" text-anchor="middle" font-family="Georgia,serif" font-size="18" font-weight="bold" letter-spacing="4" fill="#1E1E1E">RIDGE</text>
  <text x="260" y="52" text-anchor="middle" font-family="Arial,sans-serif" font-size="10" fill="#888880" letter-spacing="1.5">2-STORY · 1 BED · 2 BATH · 1,200 SF</text>
  <line x1="40" y1="66" x2="480" y2="66" stroke="#E0DCD3" stroke-width="0.75"/>
  <text x="260" y="90.0" text-anchor="middle" font-family="Arial,sans-serif" font-size="8" fill="#C4622D" letter-spacing="1">LEVEL 1</text>
  <rect x="163.7" y="107.7" width="120.4" height="112.4" fill="#FFFFFF"/>
  <rect x="284.1" y="107.7" width="72.2" height="112.4" fill="#FFFFFF"/>
  <rect x="163.7" y="220.0" width="80.3" height="88.3" fill="#FFFFFF"/>
  <rect x="243.9" y="220.0" width="40.1" height="88.3" fill="#FFFFFF"/>
  <rect x="284.1" y="220.0" width="72.2" height="88.3" fill="#E8E4DB"/>
  <rect x="163.7" y="107.7" width="192.6" height="200.6" fill="none" stroke="#1E1E1E" stroke-width="4.5" stroke-linejoin="miter"/>
  <line x1="284.1" y1="107.7" x2="284.1" y2="220.0" stroke="#3A3A3A" stroke-width="2.5"/>
  <line x1="163.7" y1="220.0" x2="356.3" y2="220.0" stroke="#3A3A3A" stroke-width="2.5"/>
  <line x1="243.9" y1="220.0" x2="243.9" y2="308.3" stroke="#3A3A3A" stroke-width="2.5"/>
  <text x="223.9" y="163.9" text-anchor="middle" dominant-baseline="central" font-family="Arial,sans-serif" font-size="10" font-weight="500" fill="#1E1E1E">LIVING / DINING</text>
  <text x="320.2" y="163.9" text-anchor="middle" dominant-baseline="central" font-family="Arial,sans-serif" font-size="9" font-weight="500" fill="#1E1E1E">KITCHEN</text>
  <text x="203.8" y="264.2" text-anchor="middle" dominant-baseline="central" font-family="Arial,sans-serif" font-size="10" font-weight="500" fill="#1E1E1E">BATH 1</text>
  <text x="264.0" y="264.2" text-anchor="middle" dominant-baseline="central" font-family="Arial,sans-serif" font-size="7.5" font-weight="500" fill="#1E1E1E">ENTRY</text>
  <text x="320.2" y="264.2" text-anchor="middle" dominant-baseline="central" font-family="Arial,sans-serif" font-size="9" font-weight="500" fill="#1E1E1E">PORCH</text>
  <text x="260" y="330.0" text-anchor="middle" font-family="Arial,sans-serif" font-size="8" fill="#C4622D" letter-spacing="1">LEVEL 2</text>
  <rect x="163.7" y="347.7" width="120.4" height="120.4" fill="#FFFFFF"/>
  <rect x="284.1" y="347.7" width="72.2" height="88.3" fill="#FFFFFF"/>
  <rect x="284.1" y="436.0" width="72.2" height="32.1" fill="#FFFFFF"/>
  <rect x="163.7" y="468.1" width="120.4" height="40.1" fill="#FFFFFF"/>
  <rect x="163.7" y="508.2" width="192.6" height="40.1" fill="#E8E4DB"/>
  <rect x="163.7" y="347.7" width="192.6" height="200.6" fill="none" stroke="#1E1E1E" stroke-width="4.5" stroke-linejoin="miter"/>
  <line x1="284.1" y1="347.7" x2="284.1" y2="468.1" stroke="#3A3A3A" stroke-width="2.5"/>
  <line x1="284.1" y1="436.0" x2="356.3" y2="436.0" stroke="#3A3A3A" stroke-width="2.5"/>
  <line x1="163.7" y1="468.1" x2="356.3" y2="468.1" stroke="#3A3A3A" stroke-width="2.5"/>
  <text x="223.9" y="407.9" text-anchor="middle" dominant-baseline="central" font-family="Arial,sans-serif" font-size="10" font-weight="500" fill="#1E1E1E">BEDROOM</text>
  <text x="320.2" y="391.8" text-anchor="middle" dominant-baseline="central" font-family="Arial,sans-serif" font-size="9" font-weight="500" fill="#1E1E1E">BATH 2</text>
  <text x="320.2" y="452.0" text-anchor="middle" dominant-baseline="central" font-family="Arial,sans-serif" font-size="9" font-weight="500" fill="#1E1E1E">CLOSET</text>
  <text x="223.9" y="488.1" text-anchor="middle" dominant-baseline="central" font-family="Arial,sans-serif" font-size="10" font-weight="500" fill="#1E1E1E">SITTING / LOFT</text>
  <text x="260.0" y="528.3" text-anchor="middle" dominant-baseline="central" font-family="Arial,sans-serif" font-size="10" font-weight="500" fill="#1E1E1E">UPPER DECK</text>
  <line x1="60" y1="325.0" x2="460" y2="325.0" stroke="#E0DCD3" stroke-width="0.75" stroke-dasharray="4,4"/>
  <line x1="40" y1="632" x2="120.3" y2="632" stroke="#1E1E1E" stroke-width="1.5"/>
  <line x1="40" y1="628" x2="40" y2="636" stroke="#1E1E1E" stroke-width="1.5"/>
  <line x1="120.3" y1="628" x2="120.3" y2="636" stroke="#1E1E1E" stroke-width="1.5"/>
  <text x="40" y="645" font-family="Arial,sans-serif" font-size="7.5" fill="#888880">0</text>
  <text x="80.1" y="645" text-anchor="middle" font-family="Arial,sans-serif" font-size="7.5" fill="#888880">|</text>
  <text x="120.3" y="645" text-anchor="middle" font-family="Arial,sans-serif" font-size="7.5" fill="#888880">10 FT</text>
  <circle cx="476" cy="630" r="16" fill="none" stroke="#888880" stroke-width="0.75"/>
  <polygon points="476,618 472,638 476,634 480,638" fill="#1E1E1E"/>
  <text x="476" y="658" text-anchor="middle" font-family="Arial,sans-serif" font-size="8" fill="#888880">N</text>
</svg>